<?xml version="1.0" encoding="utf-8"?>
<!-- Generator: Adobe Illustrator 16.0.0, SVG Export Plug-In . SVG Version: 6.00 Build 0)  -->
<!DOCTYPE svg PUBLIC "-//W3C//DTD SVG 1.1//EN" "http://www.w3.org/Graphics/SVG/1.1/DTD/svg11.dtd">
<svg version="1.1" id="Layer_1" xmlns="http://www.w3.org/2000/svg" xmlns:xlink="http://www.w3.org/1999/xlink" x="0px" y="0px"
	 width="595px" height="842px" viewBox="0 0 595 842" enable-background="new 0 0 595 842" xml:space="preserve">
<path fill="none" d="M0,123.5h595v595H0V123.5z"/>
<g>
	<path fill="#333333" d="M200.396,261.837c34.825-6.269,70.49-6.269,105.315,0c2.371-7.386,4.318-14.067,6.545-20.621
		c1.067-4.272,5.292-6.961,9.613-6.12c37.539,3.16,73.83,14.997,106.013,34.578c9.162,6.008,16.526,14.385,21.31,24.242
		c15.883,31.71,28.261,65.057,36.915,99.45c11.608,42.028,18.202,85.282,19.644,128.86c0.267,6.238-1.602,12.382-5.296,17.416
		c-14.76,19.25-34.433,34.168-56.949,43.189c-22.298,9.838-45.899,16.406-70.074,19.498c-6.451,1.565-13.159-1.334-16.439-7.105
		c-6.8-10.446-14.909-20.196-22.15-30.37c-1.691-3.057-5.396-4.373-8.637-3.069c-48.196,10.448-98.071,10.448-146.268,0
		c-3.506-1.272-7.416,0.209-9.197,3.485c-7.65,10.728-15.3,21.59-23.681,31.9c-2.27,2.997-5.719,4.874-9.469,5.151
		c-45.551-5.016-87.898-18.25-122.17-50.848c-1.323-1.277-2.578-2.625-3.757-4.037c-8.246-8.257-12.469-19.706-11.56-31.34
		c3.929-73.752,21.54-146.13,51.935-213.443c8.123-18.122,22.365-32.806,40.23-41.479c28.556-13.991,59.361-22.819,90.993-26.078
		c4.962-1.104,9.88,2.025,10.984,6.988c0.008,0.036,0.016,0.073,0.023,0.109C196.358,248.425,198.169,254.596,200.396,261.837
		L200.396,261.837z M158.465,556.465c-3.34-1.114-5.576-1.811-7.803-2.551c-22.417-6.993-43.509-17.68-62.407-31.619
		c-4.318-3.341-6.128-7.522-2.372-11.977c3.485-4.183,7.65-3.205,11.705-0.137c16.637,12.312,35.177,21.819,54.885,28.144
		c49.128,16.291,101.487,20.358,152.541,11.85c37.705-4.683,73.655-18.661,104.618-40.682c2.773-2.79,7.283-2.804,10.073-0.03
		c0.351,0.348,0.663,0.731,0.935,1.145c2.556,2.885,2.288,7.295-0.597,9.851c-0.452,0.4-0.955,0.741-1.494,1.012
		c-12.402,7.65-24.65,15.606-37.613,22.151c-10.199,5.151-21.309,8.636-32.733,13.099c6.265,8.636,12.674,16.855,18.53,25.355
		c1.898,3.239,5.712,4.83,9.35,3.901c31.429-3.576,61.528-14.692,87.737-32.402c8.144-6.166,15.573-13.223,22.151-21.037
		c2.715-3.615,4.183-8.016,4.182-12.537c-1.265-42.226-7.673-84.14-19.082-124.814c-8.112-32.614-19.889-64.206-35.105-94.171
		c-4.671-9.1-11.882-16.65-20.757-21.734c-26.302-14.894-55.356-24.287-85.399-27.608c-2.277,0.188-4.312,1.493-5.432,3.485
		c-1.185,2.577-2.042,5.293-2.55,8.083c0.85,0.85,1.113,1.25,1.529,1.394c2.644,0.697,5.432,1.394,8.084,2.091
		c24.353,5.875,47.723,15.258,69.377,27.854c4.454,2.644,7.387,6.128,4.318,11.279c-2.925,5.015-7.242,4.735-11.977,1.947
		c-40.206-22.645-85.497-34.723-131.64-35.105c-52.014-2.388-103.642,9.989-148.92,35.7c-4.454,2.644-8.636,2.644-11.424-1.946
		c-2.924-4.734-0.85-8.355,3.485-11.007c1.497-1.062,3.081-1.995,4.735-2.788c18.147-7.684,36.252-15.334,54.502-22.602
		c6.545-2.507,13.651-3.757,21.31-5.848c-3.485-4.879-0.136-13.651-9.894-12.121c-21.803,3.06-43.168,8.678-63.657,16.737
		c-22.678,8.277-40.728,25.866-49.589,48.322c-26.506,62.647-42.146,129.351-46.249,197.251c-0.854,9.285,2.644,18.441,9.469,24.794
		c29.809,29.529,67.15,41.65,107.542,47.082c1.772,0.152,3.516-0.515,4.734-1.811C144.534,575.556,151.224,566.324,158.465,556.465
		L158.465,556.465z"/>
	<path fill="#333333" d="M222.402,438.195c-0.136,32.733-29.112,56.56-58.233,47.778c-23.067-7.956-37.06-31.359-33.15-55.445
		c2.578-23.843,22.557-42.005,46.538-42.304C203.537,390.058,223.38,412.169,222.402,438.195z M207.638,438.612
		c0.781-17.231-11.521-32.293-28.56-34.97c-16.757-0.663-31.12,11.868-32.733,28.561c-0.511,3.225-0.605,6.501-0.281,9.749
		c0.831,15.383,12.351,28.067,27.583,30.371c14.413,1.019,27.555-8.237,31.45-22.151
		C206.143,446.365,206.991,442.507,207.638,438.612L207.638,438.612z"/>
	<path fill="#333333" d="M375.641,438.06c0,32.733-29.112,56.559-58.225,47.778c-23.024-7.924-37.013-31.26-33.15-55.301
		c2.574-23.844,22.549-42.009,46.529-42.313C356.777,389.94,376.664,412.041,375.641,438.06L375.641,438.06z M360.876,438.06
		c0.48-16.46-10.903-30.899-27.021-34.272c-14.89-1.684-28.763,7.802-32.598,22.287c-1.533,5.098-2.109,10.436-1.7,15.742
		c0.665,15.429,12.174,28.221,27.447,30.507c14.64,1.104,27.988-8.38,31.764-22.567C359.763,445.862,360.043,441.961,360.876,438.06
		z"/>
</g>
</svg>
