<?xml version="1.0" encoding="utf-8"?>
<!-- Generator: Adobe Illustrator 16.0.0, SVG Export Plug-In . SVG Version: 6.00 Build 0)  -->
<!DOCTYPE svg PUBLIC "-//W3C//DTD SVG 1.1//EN" "http://www.w3.org/Graphics/SVG/1.1/DTD/svg11.dtd">
<svg version="1.1" id="Layer_1" xmlns="http://www.w3.org/2000/svg" xmlns:xlink="http://www.w3.org/1999/xlink" x="0px" y="0px"
	 width="595px" height="842px" viewBox="0 0 595 842" enable-background="new 0 0 595 842" xml:space="preserve">
<path fill="none" d="M0,123.5h595v595H0V123.5z"/>
<g>
	<path fill="#333333" stroke="#7D5AB5" d="M302.361,230.897c-10.607,30.915-21.25,61.455-31.449,91.086
		c25.61,4.386,51.213,6.8,75.539,13.354c21.625,6.783,42.768,15.019,63.283,24.65c4.1,2.437,9.187,2.508,13.354,0.187
		c26.794-15.439,60.934-7.979,78.846,17.229c17.988,24.599,15.086,58.694-6.8,79.9c-2.801,2.913-4.429,6.757-4.573,10.795
		c2.745,40.239-14.263,71.885-42.619,98.404c-34.645,31.131-77.731,51.306-123.828,57.979
		c-68.571,13.617-139.712,4.507-202.64-25.95c-33-14.989-60.133-40.448-77.188-72.429c-8.672-17.204-12.771-36.352-11.9-55.599
		c-0.002-3.636-1.448-7.121-4.021-9.689C9.056,445.692,1.003,420.273,8.083,396.792c6.253-23.651,26.216-41.153,50.481-44.259
		c13.981-2.256,28.297,0.882,40.052,8.78c3.624,2.746,8.632,2.746,12.257,0c42.811-24.154,91.096-36.937,140.25-37.128
		c5.079,0.804,9.871-2.592,10.795-7.65c9.877-29.631,20.485-58.896,30.541-88.528c2.193-6.8,4.751-9.35,12.435-6.953
		c22.865,6.8,46.274,12.436,69.318,19.023c6.953,2.014,10.242,1.283,13.897-5.856c9.081-18.804,29.614-29.213,50.149-25.424
		c18.216,2.811,33.143,15.942,38.25,33.652c5.912,17.903,0.335,37.603-14.084,49.75c-13.613,13-33.828,16.271-50.848,8.228
		c-16.911-6.615-28.271-22.652-28.899-40.8c-0.365-5.491-1.828-7.65-7.318-9.146C351.203,244.43,327.241,237.664,302.361,230.897z
		 M262.123,621.209c21.769-2.745,43.528-4.573,65.11-8.415c47.014-6.931,90.38-29.326,123.25-63.648
		c39.848-38.916,40.604-102.768,1.687-142.616c-0.375-0.385-0.753-0.766-1.135-1.144c-45.721-48.833-104.983-65.841-169.005-70.414
		c-32.854-2.255-65.86,0.644-97.818,8.593c-43.743,9.146-83.6,31.565-114.129,64.201C35.31,444.142,33.19,500.76,65.144,539.635
		c20.18,25.365,46.672,44.981,76.823,56.882C180.173,612.021,220.898,620.391,262.123,621.209L262.123,621.209z M392.717,256.508
		c0,20.86,16.91,37.77,37.77,37.77c20.86,0,37.771-16.91,37.771-37.77c0.312-20.859-16.344-38.023-37.204-38.336
		c-20.859-0.312-38.023,16.344-38.336,37.204C392.711,255.753,392.711,256.13,392.717,256.508z M94.954,371.003
		c-23.732-15.421-55.473-8.685-70.894,15.048c-0.148,0.228-0.294,0.456-0.438,0.686c-13.354,21.582-8.049,52.496,11.705,64.932
		C44.826,418.47,66.002,389.823,94.954,371.003z M427.304,370.816c27.804,20.12,50.481,44.259,60.35,78.463
		c18.992-17.938,20.832-47.525,4.208-67.677c-15.253-20.166-43.61-24.888-64.575-10.752L427.304,370.816z"/>
	<path fill="#333333" stroke="#7D5AB5" d="M149.821,451.107c-0.373-20.333,15.808-37.118,36.141-37.491
		c0.392-0.007,0.783-0.008,1.174-0.003c20.77,0.098,37.583,16.911,37.68,37.681c-0.599,20.355-16.959,36.716-37.315,37.315
		c-20.693,0.117-37.562-16.562-37.68-37.255C149.821,451.271,149.821,451.189,149.821,451.107L149.821,451.107z M185.853,477.814
		c14.583,0.947,27.173-10.106,28.121-24.689c0.024-0.366,0.04-0.733,0.048-1.1c0.923-14.411-10.01-26.841-24.421-27.765
		c-0.271-0.018-0.543-0.03-0.815-0.039c-14.75-1.484-27.912,9.27-29.396,24.02c-1.484,14.751,9.27,27.912,24.02,29.396
		c0.815,0.082,1.633,0.127,2.452,0.134L185.853,477.814z"/>
	<path fill="#333333" stroke="#7D5AB5" d="M336.014,413.613c20.146-0.655,37.011,15.146,37.667,35.293
		c0.02,0.611,0.024,1.224,0.014,1.835c0.398,20.436-15.786,37.354-36.219,37.859c-20.704,0.581-37.959-15.73-38.54-36.435
		c-0.582-20.703,15.73-37.958,36.434-38.54C335.584,413.62,335.799,413.616,336.014,413.613z M335.096,477.814
		c14.821,0.479,27.227-11.147,27.706-25.969c0.479-14.822-11.146-27.227-25.969-27.706c-14.822-0.48-27.227,11.146-27.706,25.968
		c-0.003,0.09-0.006,0.18-0.008,0.269c-0.246,14.692,11.301,26.885,25.984,27.438H335.096z"/>
	<path fill="#333333" stroke="#7D5AB5" d="M261.936,569.444c-28.477-0.142-56.417-7.763-81.022-22.101
		c-2.193-1.283-3.111-4.938-4.573-7.497c3.477-0.365,7.65-2.192,10.056-0.73c25.693,14.675,55.176,21.359,84.686,19.201
		c21.429-2.205,42.33-8.019,61.82-17.195c1.649-0.731,3.29-2.38,4.752-2.38c3.188,0.185,6.364,0.551,9.511,1.097
		c-1.648,2.55-2.55,6.4-4.938,7.318c-16.643,6.4-33.107,13.166-50.294,17.926C282.053,567.265,272.027,568.722,261.936,569.444
		L261.936,569.444z"/>
</g>
</svg>
