<?xml version="1.0" encoding="utf-8"?>
<!-- Generator: Adobe Illustrator 16.0.0, SVG Export Plug-In . SVG Version: 6.00 Build 0)  -->
<!DOCTYPE svg PUBLIC "-//W3C//DTD SVG 1.1//EN" "http://www.w3.org/Graphics/SVG/1.1/DTD/svg11.dtd">
<svg version="1.1" id="Layer_1" xmlns="http://www.w3.org/2000/svg" xmlns:xlink="http://www.w3.org/1999/xlink" x="0px" y="0px"
	 width="595px" height="842px" viewBox="0 0 595 842" enable-background="new 0 0 595 842" xml:space="preserve">
<g transform="translate(.186)">
	<path fill="none" d="M1.391,124.289h593.423v593.423H1.391V124.289z"/>
	<path fill="#333333" stroke="#7D5AB5" d="M462.498,300.594c-2.755,9.147-7.112,24.687-11.868,40.082
		c-10.894,34.419-21.923,68.973-33.104,103.247c-17.859,55.036-35.817,110.023-53.875,164.964c-2.443,7.04-5.71,13.767-9.731,20.04
		c-5.332,9.278-16.876,12.935-26.577,8.418c-5.832-2.319-11.203-5.661-15.861-9.867c-26.868-24.867-53.49-49.851-79.866-74.949
		c-3.34-3.196-5.519-3.484-9.147-0.585c-13.793,11.325-27.882,22.508-41.963,33.545c-4.369,3.479-9.149,6.405-14.234,8.715
		c-17.718,7.554-29.764,0.729-31.943-18.15c-3.922-34.56-7.455-69.119-10.597-103.68c0.025-7.254-4.687-13.675-11.614-15.827
		c-28.366-11.334-56.502-23.084-84.673-34.851c-4.492-1.787-8.86-3.875-13.072-6.248c-8.717-3.845-12.667-14.029-8.822-22.747
		c1.535-3.48,4.178-6.356,7.517-8.179c6.588-3.983,13.73-6.968,21.193-8.859c71.426-19.458,142.874-38.771,214.345-57.935
		c60.117-16.119,120.176-32.237,180.18-48.355l3.484-0.848C450.298,264.582,463.363,275.467,462.498,300.594L462.498,300.594z
		 M181.656,486.751c1.158,1.499,2.418,2.915,3.772,4.239c44.874,42.952,89.841,85.877,134.902,128.772
		c2.664,2.414,5.705,4.376,9.003,5.808c5.398,3.187,12.358,1.393,15.545-4.006c0.207-0.351,0.395-0.711,0.562-1.081
		c2.973-4.953,5.406-10.211,7.257-15.684c21.058-64.762,42.064-129.575,63.021-194.439c11.47-35.605,23.092-71.007,33.833-106.731
		c6.096-20.041-1.161-27.297-21.346-22.042c-59.812,15.96-119.584,32.07-179.316,48.33
		c-50.531,13.649-100.967,27.396-151.306,41.243c-23.092,6.248-46.177,12.055-69.117,18.735c-4.646,1.306-8.274,6.392-12.343,9.732
		c3.363,3.486,7.171,6.514,11.326,9.004c32.09,13.795,64.279,27.359,96.567,40.691c2.123,0.754,4.448,0.703,6.536-0.145
		c15.539-7.553,31.078-15.395,46.465-23.236c33.257-16.7,66.506-33.257,99.763-49.949c30.205-15.259,60.267-30.638,90.463-45.592
		c3.096-1.272,6.616-0.956,9.436,0.848c3.772,3.628,0.585,6.824-2.755,9.325c-27.738,21.058-55.324,42.26-83.08,63.31
		c-25.56,19.498-51.263,38.624-76.814,58.088C203.146,469.906,192.693,478.324,181.656,486.751L181.656,486.751z M310.462,374.069
		c-0.313-0.464-0.597-0.949-0.848-1.45c-1.293,0.443-2.554,0.976-3.772,1.594c-23.813,12.055-47.771,24.254-71.592,36.453
		c-27.882,14.233-55.468,29.477-83.927,42.388c-12.055,5.519-17.277,10.452-15.099,24.687c4.357,30.061,6.536,60.41,9.876,90.606
		c0.613,3.913,1.437,7.79,2.467,11.614c5.934-23.813,10.173-47.194,14.234-70.575c2.323-13.504,2.323-28.17,17.133-35.868
		c3.541-2.02,6.894-4.352,10.021-6.968c23.092-17.422,46.033-34.995,69.117-52.425C275.468,400.493,292.889,387.285,310.462,374.069
		L310.462,374.069z M160.166,584.479c22.042-13.216,38.623-30.205,56.053-42.692c-13.792-14.412-27.009-28.171-40.946-42.549
		C170.33,527.121,165.54,554.707,160.166,584.479z"/>
</g>
</svg>
