<?xml version="1.0" encoding="utf-8"?>
<!-- Generator: Adobe Illustrator 23.0.1, SVG Export Plug-In . SVG Version: 6.00 Build 0)  -->
<svg version="1.1" id="Layer_1" xmlns="http://www.w3.org/2000/svg" xmlns:xlink="http://www.w3.org/1999/xlink" x="0px" y="0px"
	 viewBox="0 0 70 70" style="enable-background:new 0 0 70 70;" xml:space="preserve">
<style type="text/css">
	.st0{fill:none;}
	.st1{fill:#343434;}
</style>
<path class="st0" d="M0,0h70v70H0V0z"/>
<path class="st1" d="M60.1,17.5c-0.1,0.2-0.2,0.5-0.4,0.7c-0.8,2.1-2.3,3.9-4.3,5c-0.2,0.2-0.3,0.4-0.3,0.7c0,3.8-0.6,7.6-1.7,11.3
	c-2.3,7.7-7.1,14.4-13.7,19c-5,3.5-10.8,5.4-16.9,5.4c-5,0.1-10-0.4-14.9-1.5C5.7,57.7,3.8,57,1.9,56c-0.7-0.4-1.3-0.8-1.9-1.3v-1.8
	c0.4-0.4,0.9-0.5,1.4-0.5c3.7,0,7.3-0.8,10.7-2.2c0.6-0.3,1.1-0.6,1.8-0.9c-1.1-0.2-2-0.4-2.9-0.7c-4.1-1.2-6.7-4-8.1-8
	c-0.2-0.5-0.1-1.1,0.4-1.4c0.4-0.4,1.1-0.4,1.5,0c1.4,0.8,3,1.2,4.6,1.1C9.1,40,9,39.8,8.8,39.7c-3.7-2.4-6.4-5.9-7.9-10
	c0-0.1-0.1-0.3-0.1-0.4c-0.3-0.6-0.1-1.2,0.4-1.6c0.5-0.3,1.2-0.3,1.6,0.2c1.2,0.9,2.5,1.5,4,1.7c-5.1-5.5-6.1-11.4-2.2-18
	c6.2,7.5,14.4,11.3,23.7,12.8c0.2-1.2,0.2-2.3,0.5-3.5c1.3-6,6.5-10.3,12.6-10.6c2,0.1,3.9,0.6,5.7,1.5c0.8,0.4,1.6,0.8,2.4,1.2
	c0.4,0.2,0.8,0.3,1.2,0.1c2.2-0.9,4.5-1.8,6.7-2.6c0.8-0.3,1.3-0.2,1.6,0.5c0.1,0.3,0.1,0.6,0,1c-0.6,1.1-1.2,2.3-1.8,3.4
	c-0.2,0.3-0.4,0.6-0.6,0.8c0.6-0.2,1-0.3,1.5-0.5c0.7-0.4,1.5-0.2,2,0.3C60.1,16.5,60.1,17,60.1,17.5z M12.9,31.8
	c-3.1,0.1-6.2,0.4-9.2-0.8c2.2,4.4,6,7.7,10.6,9.3c-0.1,0.7-0.2,1.3-0.3,2c-2.8,0-5.6,0.4-8.4-0.4c0.1,0.2,0.2,0.3,0.2,0.4
	c1.5,2.5,4,4.2,6.9,4.7c2.1,0.3,4.2,0.5,6.4,0.4h1C15.5,51.5,9.6,54,3.4,54.5c1.2,0.5,2.3,1,3.6,1.3c5.5,1.4,11.2,2,16.9,1.7
	c3.2-0.1,6.4-0.9,9.3-2.2c6.6-2.8,12.1-7.8,15.4-14.2c3.1-5.6,4.6-12,4.4-18.4c-0.1-0.5,0.2-0.9,0.7-1c1.7-0.7,3-1.9,3.7-3.5
	l-0.4,0.1c-1.1,0.4-2.2,0.8-3.3,1.1c-0.4,0.2-0.9,0.2-1.3-0.1c-0.6-0.5-0.6-1.3,0.1-1.9c1-1,2-2.1,3.1-3.2c0.2-0.3,0.4-0.6,0.6-0.9
	c-1.8,0.6-3.4,1.3-5,1.9c-0.8,0.3-1.7,0.2-2.4-0.2c-1.2-0.6-2.4-1.2-3.6-1.7c-1.2-0.6-2.4-0.8-3.7-0.8c-4,0.1-7.5,2.3-9.4,5.8
	c-1.2,2.2-1.8,4.8-1.5,7.3c0,0.4,0,0.9,0,1.4c-0.2,0-0.3,0-0.5,0c-2.3-0.5-4.7-0.9-7-1.5c-5.8-1.4-11.2-4.2-15.6-8.1
	c-0.7-0.6-1.4-1.3-2.1-2c0,0.1-0.1,0.2-0.1,0.3c-0.9,2.3-0.9,4.8-0.2,7.1c1.1,3.1,3.2,5.7,5.9,7.6C11.4,30.7,12.2,31.3,12.9,31.8z"
	/>
</svg>
