<?xml version="1.0" encoding="utf-8"?>
<!-- Generator: Adobe Illustrator 23.0.1, SVG Export Plug-In . SVG Version: 6.00 Build 0)  -->
<svg version="1.1" id="Layer_1" xmlns="http://www.w3.org/2000/svg" xmlns:xlink="http://www.w3.org/1999/xlink" x="0px" y="0px"
	 viewBox="0 0 595 842" style="enable-background:new 0 0 595 842;" xml:space="preserve">
<style type="text/css">
	.st0{fill:#343434;}
</style>
<path class="st0" d="M470,292.06c-0.91,1.81-1.81,3.63-2.72,5.44c-6.35,16.32-18.14,29.93-33.56,39c-1.81,1.81-2.72,2.72-2.72,5.44
	c0,29.02-4.53,58.95-12.7,87.07c-18.14,59.86-54.42,111.55-106.11,146.92c-39,27.21-83.44,41.72-130.6,41.72
	c-39,0.91-77.09-2.72-115.18-11.79c-17.23-2.72-31.74-8.16-46.25-16.32c-5.44-3.63-9.98-6.35-14.51-9.98v-13.6
	c2.72-2.72,7.26-3.63,10.88-3.63c29.02,0,56.23-6.35,82.53-17.23c4.53-2.72,8.16-4.53,13.6-7.26c-8.16-1.81-15.42-2.72-22.67-5.44
	c-31.74-9.07-51.7-30.84-62.58-61.67c-1.81-3.63-0.91-8.16,2.72-10.88c2.72-2.72,8.16-2.72,11.79,0
	c10.88,6.35,23.58,9.07,35.37,8.16c-2.72-2.72-2.72-3.63-4.53-4.53C43.74,445.33,22.88,418.12,12,386.38c0-0.91-0.91-2.72-0.91-2.72
	c-2.72-4.53-0.91-9.07,2.72-12.7c3.63-2.72,9.07-2.72,12.7,1.81c9.07,7.26,19.05,11.79,30.84,12.7
	c-39-42.63-47.16-87.97-17.23-138.76c48.07,58.04,111.55,87.07,183.2,98.86c1.81-9.07,1.81-18.14,3.63-27.21
	c9.98-46.25,49.88-79.81,97.04-81.62c15.42,0.91,29.93,4.53,44.44,11.79c6.35,2.72,12.7,6.35,18.14,9.07
	c2.72,1.81,6.35,2.72,9.07,0.91c17.23-7.26,34.46-13.6,51.7-19.95c6.35-2.72,9.98-1.81,12.7,3.63c0.91,2.72,0.91,4.53,0,8.16
	c-4.53,8.16-9.07,18.14-13.6,26.3c-1.81,2.72-2.72,4.53-4.53,6.35c4.53-1.81,8.16-2.72,11.79-3.63c5.44-2.72,11.79-1.81,15.42,2.72
	C470,284.8,470,288.43,470,292.06z M105.41,402.71c-23.58,0.91-48.07,2.72-70.74-6.35c17.23,33.56,46.25,59.86,81.62,71.65
	c-0.91,5.44-1.81,9.98-2.72,15.42c-21.77,0-43.53,2.72-65.3-2.72c0.91,1.81,1.81,2.72,1.81,2.72
	c11.79,19.05,30.84,32.65,53.51,36.28c16.32,2.72,32.65,3.63,49.88,2.72h8.16c-35.37,31.74-80.72,50.79-128.79,54.42
	c9.07,3.63,18.14,8.16,28.12,9.98c42.63,10.88,86.16,15.42,130.6,12.7c24.49-0.91,49.88-7.26,71.65-17.23
	c50.79-21.77,93.41-59.86,118.81-109.74c23.58-43.53,35.37-92.51,33.56-142.39c-0.91-3.63,1.81-7.26,5.44-8.16
	c12.7-5.44,23.58-14.51,29.02-27.21l-2.72,0.91c-8.16,2.72-17.23,6.35-25.39,8.16c-2.72,1.81-7.26,1.81-9.98-0.91
	c-4.53-3.63-4.53-9.98,0.91-14.51c8.16-8.16,15.42-16.32,23.58-24.49c1.81-2.72,2.72-4.53,4.53-7.26c-13.6,4.53-26.3,9.98-39,14.51
	c-6.35,2.72-12.7,1.81-18.14-1.81c-9.07-4.53-18.14-9.07-28.12-12.7c-9.07-4.53-18.14-6.35-29.02-6.35
	c-30.84,0.91-58.04,18.14-72.55,44.44c-9.07,17.23-13.6,37.18-11.79,56.23c0,2.72,0,7.26,0,10.88c-1.81,0-2.72,0-3.63,0
	c-18.14-3.63-36.28-7.26-54.42-11.79c-44.44-10.88-86.16-32.65-120.62-62.58c-5.44-4.53-10.88-9.98-16.32-15.42
	c0,0.91-0.91,1.81-0.91,2.72c-7.26,18.14-7.26,37.18-1.81,54.42c8.16,23.58,24.49,44.44,45.35,58.95
	C93.62,393.64,99.97,399.08,105.41,402.71z"/>
</svg>
