<?xml version="1.0" encoding="utf-8"?>
<!-- Generator: Adobe Illustrator 23.0.1, SVG Export Plug-In . SVG Version: 6.00 Build 0)  -->
<svg version="1.1" id="Layer_1" xmlns="http://www.w3.org/2000/svg" xmlns:xlink="http://www.w3.org/1999/xlink" x="0px" y="0px"
	 viewBox="0 0 55 50" style="enable-background:new 0 0 55 50;" xml:space="preserve">
<style type="text/css">
	.st0{fill:#343434;}
</style>
<path class="st0" d="M44,8.8c-0.08,0.16-0.16,0.33-0.25,0.49c-0.57,1.48-1.64,2.71-3.04,3.53c-0.16,0.16-0.25,0.25-0.25,0.49
	c0,2.63-0.41,5.33-1.15,7.88c-1.64,5.41-4.92,10.09-9.6,13.29c-3.53,2.46-7.55,3.77-11.81,3.77c-3.53,0.08-6.97-0.25-10.42-1.07
	c-1.56-0.25-2.87-0.74-4.18-1.48c-0.49-0.33-0.9-0.57-1.31-0.9v-1.23c0.25-0.25,0.66-0.33,0.98-0.33c2.62,0,5.09-0.57,7.46-1.56
	c0.41-0.25,0.74-0.41,1.23-0.66c-0.74-0.16-1.39-0.25-2.05-0.49c-2.87-0.82-4.68-2.79-5.66-5.58c-0.16-0.33-0.08-0.74,0.25-0.98
	c0.25-0.25,0.74-0.25,1.07,0c0.98,0.57,2.13,0.82,3.2,0.74c-0.25-0.25-0.25-0.33-0.41-0.41c-2.62-1.64-4.51-4.1-5.5-6.97
	c0-0.08-0.08-0.25-0.08-0.25c-0.25-0.41-0.08-0.82,0.25-1.15c0.33-0.25,0.82-0.25,1.15,0.16c0.82,0.66,1.72,1.07,2.79,1.15
	C3.15,13.4,2.41,9.3,5.12,4.7c4.35,5.25,10.09,7.88,16.57,8.94c0.16-0.82,0.16-1.64,0.33-2.46c0.9-4.18,4.51-7.22,8.78-7.38
	c1.39,0.08,2.71,0.41,4.02,1.07c0.57,0.25,1.15,0.57,1.64,0.82c0.25,0.16,0.57,0.25,0.82,0.08c1.56-0.66,3.12-1.23,4.68-1.8
	c0.57-0.25,0.9-0.16,1.15,0.33c0.08,0.25,0.08,0.41,0,0.74c-0.41,0.74-0.82,1.64-1.23,2.38c-0.16,0.25-0.25,0.41-0.41,0.57
	c0.41-0.16,0.74-0.25,1.07-0.33c0.49-0.25,1.07-0.16,1.39,0.25C44,8.15,44,8.48,44,8.8z M11.02,18.81c-2.13,0.08-4.35,0.25-6.4-0.57
	c1.56,3.04,4.18,5.41,7.38,6.48c-0.08,0.49-0.16,0.9-0.25,1.39c-1.97,0-3.94,0.25-5.91-0.25c0.08,0.16,0.16,0.25,0.16,0.25
	c1.07,1.72,2.79,2.95,4.84,3.28c1.48,0.25,2.95,0.33,4.51,0.25h0.74c-3.2,2.87-7.3,4.59-11.65,4.92C5.28,34.89,6.1,35.3,7,35.46
	c3.86,0.98,7.79,1.39,11.81,1.15c2.21-0.08,4.51-0.66,6.48-1.56c4.59-1.97,8.45-5.41,10.75-9.93c2.13-3.94,3.2-8.37,3.04-12.88
	c-0.08-0.33,0.16-0.66,0.49-0.74c1.15-0.49,2.13-1.31,2.62-2.46l-0.25,0.08c-0.74,0.25-1.56,0.57-2.3,0.74
	c-0.25,0.16-0.66,0.16-0.9-0.08c-0.41-0.33-0.41-0.9,0.08-1.31c0.74-0.74,1.39-1.48,2.13-2.21c0.16-0.25,0.25-0.41,0.41-0.66
	c-1.23,0.41-2.38,0.9-3.53,1.31c-0.57,0.25-1.15,0.16-1.64-0.16c-0.82-0.41-1.64-0.82-2.54-1.15c-0.82-0.41-1.64-0.57-2.62-0.57
	c-2.79,0.08-5.25,1.64-6.56,4.02c-0.82,1.56-1.23,3.36-1.07,5.09c0,0.25,0,0.66,0,0.98c-0.16,0-0.25,0-0.33,0
	c-1.64-0.33-3.28-0.66-4.92-1.07c-4.02-0.98-7.79-2.95-10.91-5.66C6.76,7.98,6.27,7.49,5.77,7c0,0.08-0.08,0.16-0.08,0.25
	c-0.66,1.64-0.66,3.36-0.16,4.92c0.74,2.13,2.21,4.02,4.1,5.33C9.96,17.99,10.53,18.48,11.02,18.81z"/>
</svg>
