<?xml version="1.0" encoding="utf-8"?>
<!-- Generator: Adobe Illustrator 16.0.0, SVG Export Plug-In . SVG Version: 6.00 Build 0)  -->
<!DOCTYPE svg PUBLIC "-//W3C//DTD SVG 1.1//EN" "http://www.w3.org/Graphics/SVG/1.1/DTD/svg11.dtd">
<svg version="1.1" id="Layer_1" xmlns="http://www.w3.org/2000/svg" xmlns:xlink="http://www.w3.org/1999/xlink" x="0px" y="0px"
	 width="595px" height="842px" viewBox="0 0 595 842" enable-background="new 0 0 595 842" xml:space="preserve">
<g id="hom-governance" transform="translate(-264 -3183)">
	<g id="Group_3577" transform="translate(-886.889 3045.6)">
		<path id="Path_1011" fill="none" stroke="#000000" stroke-width="13" stroke-miterlimit="10" d="M1572.667,528.821v-29.665
			l-42.103-36.108v-108.97h-90.949v32.24l-71.4-59.967l-204.484,172.805v32.895"/>
		<path id="Path_1012" fill="none" stroke="#000000" stroke-width="13" stroke-miterlimit="10" d="M1240.419,502.361l127.5-114.75
			l138.797,114.75"/>
		<g id="Group_768" transform="translate(1157.862 171.134)">
			<path id="Path_1013" fill="none" stroke="#666666" stroke-width="13" stroke-miterlimit="10" d="M52.297,378.971
				c0,0,78.021,160.557,127.67,68.995C229.617,356.404,52.297,378.971,52.297,378.971z"/>
			<path id="Path_1014" fill="none" stroke="#666666" stroke-width="13" stroke-miterlimit="10" d="M379.343,398.309
				c0,0-177.965-13.54-123.802,75.446C309.704,562.741,379.343,398.309,379.343,398.309z"/>
			<path id="Path_1015" fill="none" stroke="#666666" stroke-width="13" stroke-miterlimit="10" d="M106.458,402.823
				c0,0,123.802,78.021,123.802,213.437"/>
			<path id="Path_1016" fill="none" stroke="#666666" stroke-width="13" stroke-miterlimit="10" d="M332.917,426.036
				c0,0-103.812,64.479-115.422,115.421"/>
		</g>
		<path id="Path_1010" fill="none" stroke="#000000" stroke-width="13" stroke-miterlimit="10" d="M1163.733,667.457v119.937
			h408.935V671.97"/>
	</g>
</g>
</svg>
