<?xml version="1.0" encoding="utf-8"?>
<!-- Generator: Adobe Illustrator 16.0.0, SVG Export Plug-In . SVG Version: 6.00 Build 0)  -->
<!DOCTYPE svg PUBLIC "-//W3C//DTD SVG 1.1//EN" "http://www.w3.org/Graphics/SVG/1.1/DTD/svg11.dtd">
<svg version="1.1" id="Layer_1" xmlns="http://www.w3.org/2000/svg" xmlns:xlink="http://www.w3.org/1999/xlink" x="0px" y="0px"
	 width="595px" height="842px" viewBox="0 0 595 842" enable-background="new 0 0 595 842" xml:space="preserve">
<path fill="none" d="M0,123.5h595v595H0V123.5z"/>
<path fill="#333333" d="M241.655,215.81c-69.955,2.788-120.904,33.15-153.349,92.769c-15.396,28.58-21.593,61.215-17.748,93.449
	c4.012,41.613,23.451,80.225,54.494,108.229c5.321,4.98,11.237,9.352,17,13.854c16.02,11.838,25.436,30.604,25.347,50.522
	c0.625,5.126-3.023,9.788-8.149,10.413c-0.322,0.039-0.646,0.062-0.971,0.067c-5.076,0.181-9.337-3.788-9.518-8.864
	c-0.015-0.418-0.001-0.836,0.041-1.251c0-18.335-9.971-30.337-23.911-40.8c-33.434-24.996-57.291-60.696-67.592-101.15
	c-6.3-22.406-8.052-45.849-5.151-68.943c5.541-48.959,30.236-93.735,68.688-124.542c25.929-21.509,57.36-35.33,90.738-39.899
	c51.011-7.992,103.057,5.464,143.803,37.179c80.488,61.988,96.762,176.898,36.651,258.798
	c-17.415,22.981-39.877,41.654-65.653,54.578c-4.317,2.833-10.114,1.633-12.947-2.687c-2.834-4.317-1.631-10.113,2.688-12.947
	c0.567-0.373,1.177-0.683,1.812-0.925c20.147-10.46,38.146-24.618,53.059-41.734c17.606-20.424,29.652-45.041,34.978-71.477
	c4.076-19.02,4.875-38.591,2.363-57.876c-3.153-24.348-11.729-47.678-25.092-68.272c-12.155-18.868-27.919-35.148-46.387-47.906
	c-19.328-13.709-41.464-22.945-64.804-27.039C261.426,217.578,250.529,216.821,241.655,215.81L241.655,215.81z"/>
<path fill="#666666" d="M143.14,409.882v-56.61c-0.732-4.841,2.599-9.359,7.44-10.092c0.753-0.114,1.518-0.13,2.275-0.048
	c12.674-0.255,25.347-0.085,38.021,0c1.681-0.142,3.365,0.241,4.819,1.096c3.128,2.703,4.82,0.756,7.013-1.267
	c10.363-8.65,17.409-20.623,19.941-33.881c0.831-4.855,1.115-9.787,0.85-14.705c-1.267-15.376,8.874-26.699,28.22-20.783
	c11.743,3.5,19.875,14.192,20.111,26.444c-0.045,11.096-0.724,22.182-2.031,33.201c-0.68,6.673-0.68,7.268,6.086,7.268
	c11.152,0,22.219-0.255,33.371-0.085c14.432-0.717,26.712,10.401,27.428,24.833c0.208,4.188-0.593,8.363-2.336,12.176
	c-1.085,2.256-1.021,4.896,0.17,7.098c3.448,8.045,2.688,17.277-2.029,24.65c-0.979,1.778-1.392,3.812-1.184,5.831
	c1.743,9.142-1.117,18.552-7.648,25.177c-1.746,1.938-2.992,4.271-3.629,6.802c-2.678,10.284-11.692,17.664-22.304,18.25
	c-6.086,0.34-12.079,0.255-18.165,0.255c-18.759,0-37.4,0-56.185-0.085c-4.932,0.621-9.435-2.873-10.056-7.808
	c-0.205-1.629,0.039-3.28,0.706-4.781c1.597-3.775,5.467-6.07,9.546-5.661c9.129,0,18.334,0.086,27.463,0.086
	c14.365,0,28.73,0,43.095-0.086c6.256-0.084,8.023-1.776,8.193-8.023c-0.006-3.564,1.729-6.91,4.647-8.959
	c7.523-6.001,8.024-7.77,4.735-16.473c-2.332-4.139-1.079-9.37,2.873-12.002c4.817-4.396,5.1-7.608,0.765-12.589
	c-4.199-3.333-4.899-9.439-1.566-13.638c0.461-0.582,0.985-1.108,1.566-1.569c2.887-2.671,3.77-6.876,2.193-10.481
	c-1.701-3.231-5.266-5.03-8.875-4.479c-16.303,0-32.699,0.085-49.002,0c-8.619-0.085-11.9-4.25-10.311-12.673
	c3.07-14.75,4.459-29.801,4.14-44.863c0.045-4.504-2.771-8.541-7.013-10.056c-3.213-1.352-4.055-0.425-4.395,2.958
	c-0.492,8.801-1.629,17.554-3.4,26.188c-3.425,12.584-10.373,23.929-20.026,32.7c-4.734,4.649-9.291,9.35-14.195,13.855
	c-2.325,2.038-3.601,5.02-3.468,8.109c0.085,30.167,0,60.24,0,90.406c0,8.874-3.128,12.002-11.832,12.002
	c-11.237-0.085-22.559,0-33.796,0c-9.801,0-12.249-2.447-12.249-12.078C143.141,446.722,143.141,428.311,143.14,409.882
	L143.14,409.882z M182.682,410.732c0-15.039-0.085-30.083,0-45.12c0-3.4-1.181-4.479-4.394-4.31
	c-4.079,0.239-8.167,0.268-12.249,0.085c-3.468-0.17-4.734,1.012-4.649,4.564c0.17,9.35,0,18.845,0,28.22
	c0,20.111-0.028,40.229-0.085,60.353c0,3.397,1.096,4.902,4.649,4.732c4.055-0.17,8.194-0.085,12.249,0.085
	c3.468,0.17,4.649-1.182,4.649-4.647c-0.255-14.73-0.17-29.353-0.17-43.973V410.732z"/>
<path fill="#333333" d="M167.892,621.191c0.198,9.154,7.573,16.528,16.728,16.729c27.88-0.086,55.763-0.113,83.648-0.086
	c8.874,0,17.739,0.086,26.613,0c9.358,0.207,17.112-7.212,17.319-16.57c0.003-0.143,0.004-0.286,0.004-0.43
	c0.255-10.557,0-21.122,0.17-31.688c0.085-3.47-1.437-4.312-4.564-4.312c-33.541,0.085-67.004,0.085-100.545,0.085
	c-1.557,0.057-3.116-0.059-4.649-0.34c-4.314-0.942-7.249-4.953-6.842-9.35c-0.105-4.467,3.391-8.189,7.854-8.364
	c7.013-0.341,14.11-0.255,21.123-0.341h93.789c9.129,0,12.164,2.959,12.249,12.088c0,13.685-0.425,27.293,0.085,40.979
	c0.192,20.061-15.912,36.477-35.971,36.667c-0.091,0.001-0.182,0.001-0.273,0.002c-4.116-0.582-7.944,2.229-8.619,6.333
	c-5.303,16.947-19.726,29.445-37.255,32.282c-24.736,4.665-48.938-10.333-55.769-34.562c-0.926-3.399-2.448-3.971-5.576-3.971
	c-12.482,0.561-24.403-5.225-31.688-15.377c-6.081-9.303-8.352-20.588-6.341-31.518c0.51-4.65,4.479-7.27,9.971-7.27
	c16.643-0.086,33.201-0.086,49.853-0.086c21.533,0,43.066,0.029,64.6,0.086c4.988-0.666,9.572,2.84,10.238,7.826
	c0.211,1.585,0.002,3.198-0.607,4.678c-1.542,3.963-5.583,6.365-9.801,5.83c-11.832,0.086-23.655,0.086-35.487,0.086h-64.6
	C171.606,620.859,169.838,621.106,167.892,621.191L167.892,621.191z M211.403,656.85c4.238,13.729,17.782,22.379,32.02,20.451
	c11.653-1.066,21.449-9.195,24.65-20.451H211.403z"/>
<g>
	<path fill="#999999" d="M15.725,391.216c-2.278,0-4.479,0.17-6.8,0c-4.869-0.11-8.802-4.007-8.959-8.874
		c-0.3-5.155,3.636-9.577,8.792-9.877c0.056-0.003,0.112-0.006,0.167-0.008c4.225-0.253,8.463-0.167,12.674,0.255
		c5.042,0.063,9.077,4.201,9.015,9.242c-0.004,0.301-0.022,0.601-0.056,0.898c-0.254,4.951-4.474,8.759-9.425,8.504
		c-0.211-0.011-0.421-0.029-0.631-0.055c-1.7,0-3.213,0-4.819-0.085H15.725L15.725,391.216z"/>
	<path fill="#999999" d="M249.263,161.648c0,2.117,0.085,4.25,0,6.341c-0.116,4.985-3.987,9.073-8.959,9.46
		c-5.155,0.302-9.579-3.632-9.881-8.787c-0.001-0.026-0.003-0.052-0.004-0.079c-0.295-4.333-0.295-8.681,0-13.014
		c0.369-5.041,4.493-8.985,9.545-9.129c4.97,0.37,8.921,4.321,9.291,9.291C249.347,157.679,249.263,159.617,249.263,161.648z"/>
	<path fill="#999999" d="M78.243,211.416c9.161,2.153,16.367,9.218,18.7,18.334c0.04,3.492-2.076,6.648-5.321,7.939
		c-3.069,1.669-6.855,1.23-9.46-1.096c-3.561-3.188-6.919-6.594-10.056-10.2c-2.514-2.648-2.994-6.631-1.182-9.801
		C72.229,213.655,75.038,211.668,78.243,211.416z"/>
	<path fill="#999999" d="M74.783,554.441c-5.11,0.266-9.468-3.662-9.733-8.771c-0.12-2.303,0.623-4.566,2.083-6.35
		c3.227-3.508,6.67-6.812,10.311-9.888c3.431-2.748,8.357-2.565,11.577,0.427c3.617,2.627,4.447,7.676,1.861,11.32
		c-3.834,4.438-8.046,8.537-12.588,12.248C77.316,554.28,75.48,554.28,74.783,554.441L74.783,554.441z"/>
	<path fill="#999999" d="M409.794,549.545c0.188,3.854-1.985,7.436-5.491,9.045c-3.171,1.807-7.148,1.326-9.801-1.182
		c-3.449-3.082-6.694-6.384-9.716-9.888c-2.949-3.479-2.877-8.601,0.17-11.991c2.933-3.521,8.067-4.221,11.832-1.607
		c4.242,3.867,8.218,8.018,11.9,12.419C409.339,547.289,409.721,548.396,409.794,549.545L409.794,549.545z"/>
	<path fill="#999999" d="M464.295,398.135c-2.116,0-4.25,0.086-6.332,0c-4.731-0.012-8.63-3.722-8.874-8.449
		c-0.578-4.829,2.867-9.212,7.695-9.792c0.025-0.003,0.055-0.006,0.082-0.009c5.03-0.479,10.097-0.451,15.121,0.085
		c4.672,0.46,8.086,4.62,7.626,9.292c-0.005,0.057-0.014,0.112-0.021,0.168c-0.188,4.694-3.926,8.47-8.618,8.704
		c-2.191,0.17-4.479,0-6.673,0L464.295,398.135L464.295,398.135z"/>
	<path fill="#999999" d="M397.375,243.188c-3.84,0.453-7.531-1.63-9.129-5.151c-1.688-3.234-1.108-7.187,1.437-9.801
		c3.042-3.286,6.259-6.407,9.632-9.35c3.369-3.055,8.465-3.199,12.002-0.34c3.563,2.66,4.549,7.582,2.276,11.407
		c-4.086,4.587-8.521,8.85-13.269,12.75C399.568,243.273,397.961,243.104,397.375,243.188z"/>
	<path fill="#999999" d="M329.018,174.5c5.172-0.071,9.432,4.037,9.548,9.206c0.09,5.992-4.272,11.125-10.2,12.002
		c-5.029,0.287-9.338-3.557-9.625-8.586c-0.008-0.127-0.014-0.254-0.016-0.381C318.342,180.568,322.871,175.182,329.018,174.5
		L329.018,174.5z"/>
	<path fill="#999999" d="M433.279,304.27c-0.256-6.928,6.086-10.141,11.747-10.727c5.178-0.058,9.455,4.03,9.63,9.206
		c-0.828,6.09-6.025,10.634-12.172,10.642C437.465,313.314,433.401,309.288,433.279,304.27z"/>
	<path fill="#999999" d="M46.393,467.087c-0.558,6.12-5.97,10.629-12.09,10.071c-0.053-0.005-0.105-0.01-0.158-0.018
		c-4.998-0.025-9.055-4.047-9.129-9.044c0.848-6.062,6.131-10.509,12.249-10.311c4.82-0.229,8.912,3.498,9.138,8.317
		C46.417,466.434,46.415,466.761,46.393,467.087z"/>
	<path fill="#999999" d="M442.484,483.645c-6.179,0.166-11.422-4.487-11.994-10.642c0.201-5.131,4.411-9.191,9.546-9.206
		c5.995,0.094,10.999,4.604,11.713,10.56c0.015,5.114-4.122,9.274-9.239,9.288C442.501,483.645,442.492,483.645,442.484,483.645
		L442.484,483.645z"/>
	<path fill="#999999" d="M153.697,173.225c6.175,0.593,10.771,5.971,10.396,12.164c-0.069,5.018-4.193,9.029-9.211,8.96
		c-0.026,0-0.053-0.001-0.08-0.001c-6.09-0.386-10.715-5.635-10.33-11.726c0.008-0.118,0.017-0.235,0.028-0.353
		c-0.063-4.934,3.885-8.984,8.818-9.047C153.444,173.22,153.571,173.221,153.697,173.225z"/>
	<path fill="#999999" d="M39.806,306.888c-6.031,0.256-11.231-4.201-11.9-10.2c-0.136-4.951,3.768-9.074,8.718-9.21
		c0.21-0.006,0.421-0.004,0.632,0.005c6.087-0.436,11.375,4.146,11.811,10.233c0.01,0.136,0.017,0.272,0.021,0.409
		c-0.1,4.942-4.187,8.868-9.129,8.768C39.907,306.891,39.856,306.89,39.806,306.888L39.806,306.888z"/>
</g>
</svg>
