<?xml version="1.0" encoding="utf-8"?>
<!-- Generator: Adobe Illustrator 16.0.0, SVG Export Plug-In . SVG Version: 6.00 Build 0)  -->
<!DOCTYPE svg PUBLIC "-//W3C//DTD SVG 1.1//EN" "http://www.w3.org/Graphics/SVG/1.1/DTD/svg11.dtd">
<svg version="1.1" id="Layer_1" xmlns="http://www.w3.org/2000/svg" xmlns:xlink="http://www.w3.org/1999/xlink" x="0px" y="0px"
	 width="595px" height="842px" viewBox="0 0 595 842" enable-background="new 0 0 595 842" xml:space="preserve">
<path fill="none" d="M0.866,123.933H595v594.135H0.866V123.933z"/>
<g>
	<path fill="none" stroke="#333333" stroke-width="13" stroke-linecap="round" stroke-linejoin="round" stroke-miterlimit="10" d="
		M223.471,404.178c0.082-12.754,10.4-23.07,23.154-23.154h70.328v-83.875c0.062-5.973-4.729-10.863-10.701-10.924
		c-0.074,0-0.148,0-0.223,0H63.148c-5.973-0.062-10.862,4.73-10.924,10.701c-0.001,0.074-0.001,0.148,0,0.223v159.006
		c-0.062,5.973,4.729,10.861,10.701,10.926c0.074,0,0.147,0,0.223,0h242.866c5.972,0.061,10.86-4.732,10.925-10.703
		c0-0.072,0-0.148,0-0.223v-29.707H246.6c-12.305,0.461-22.654-9.146-23.113-21.449C223.477,404.724,223.471,404.45,223.471,404.178
		L223.471,404.178z"/>
	<path fill="none" stroke="#333333" stroke-width="13" stroke-linecap="round" stroke-linejoin="round" stroke-miterlimit="10" d="
		M496.925,320.711l-91.301-28.857c-17.475-53.295-78.629-52.42-78.629-52.42H222.597c-41.496,0-48.49,46.742-48.49,46.742h131.922
		c5.972-0.062,10.86,4.73,10.923,10.703c0.002,0.072,0.002,0.146,0,0.221v83.875h-70.328c-12.787,0-23.154,10.367-23.154,23.154
		c0,12.789,10.367,23.154,23.154,23.154h95.672c21.84,0,26.646-16.125,31.016-28.393l88.271,28.393L496.925,320.711z"/>
	<path fill="none" stroke="#333333" stroke-width="13" stroke-linecap="round" stroke-linejoin="round" stroke-miterlimit="10" d="
		M29.52,426.867H6.364v170.305H371.12"/>
	<path fill="none" stroke="#333333" stroke-width="13" stroke-linecap="round" stroke-linejoin="round" stroke-miterlimit="10" d="
		M31.701,467.486h369.561"/>
</g>
<path fill="#666666" d="M108.599,535.625c-0.864-9.805,3.085-19.419,10.593-25.785c13.215-9.966,32.007-7.332,41.974,5.883
	c1.989,2.639,3.528,5.585,4.556,8.727c3.341,10.275,1.839,21.516-4.083,30.556c-6.146,8.585-16.666,12.892-27.067,11.076
	c-15.213-0.806-26.893-13.792-26.087-29.005C108.51,536.59,108.548,536.107,108.599,535.625z M137.822,556.505
	c7.448,0.341,14.07-4.704,15.719-11.976c1.166-5.366,1.401-10.895,0.696-16.339c-1.063-9.01-9.228-15.448-18.235-14.388
	c-6.912,0.816-12.559,5.9-14.094,12.688c-1.943,6.333-1.704,13.136,0.679,19.315C124.699,552.384,130.922,556.752,137.822,556.505z"
	/>
<path fill="#666666" d="M239.182,514.415v15.021h14.259c4.015,0,8.097-0.066,12.12,0.067c2.062-0.151,3.856,1.396,4.007,3.459
	c0.011,0.14,0.013,0.28,0.007,0.42c0.136,2.495-0.764,4.362-3.463,4.645c-2.699,0.278-5.262,0.348-7.894,0.416
	c-6.23,0.066-12.459,0-18.902,0v17.094c1.104,0.067,2.352,0.136,3.599,0.136c8.31,0,16.619,0,24.928,0.068
	c2.496,0,4.643,0.764,5.093,3.529c0.762,2.218-0.416,4.633-2.632,5.396c-0.556,0.191-1.146,0.265-1.731,0.217
	c-11.976,0.136-24.028,0.067-36.004,0c-2.807,0.18-5.229-1.949-5.409-4.756c-0.017-0.263-0.013-0.525,0.01-0.787
	c-0.068-16.126-0.068-32.329,0-48.464c-0.203-2.871,1.96-5.363,4.831-5.566c0.328-0.021,0.657-0.016,0.983,0.023
	c11.424-0.136,22.849-0.067,34.273,0c2.384-0.313,4.571,1.365,4.884,3.75c0.036,0.271,0.045,0.544,0.03,0.816
	c0.033,2.44-1.92,4.446-4.362,4.479c-0.245,0.003-0.489-0.014-0.73-0.051c-7.961,0.066-15.923,0-23.884,0
	C241.881,514.415,240.642,514.415,239.182,514.415L239.182,514.415z"/>
<path fill="#666666" d="M77.45,551.455c4.64-13.778,9.302-27.557,13.988-41.335c0.28-0.764,0.483-1.521,0.849-2.283
	c0.921-2.752,3.875-4.262,6.646-3.396c2.862,0.604,4.69,3.418,4.084,6.277c-0.052,0.243-0.12,0.481-0.205,0.715
	c-2.215,6.578-4.643,13.156-7.062,19.734c-3.488,9.48-6.951,18.979-10.55,28.382c-2.215,5.814-7.342,8.378-11.882,5.681
	c-2.308-1.614-4.082-3.884-5.093-6.512c-3.599-8.859-6.714-17.822-9.973-26.796c-2.402-6.434-4.795-12.941-7.112-19.454
	c-1.356-2.939-0.07-6.425,2.872-7.778c0.664-0.309,1.38-0.485,2.11-0.528c3.531-0.204,5.194,2.012,6.23,4.914
	c3.047,8.929,6.094,17.824,9.141,26.728c1.698,5.194,3.531,10.391,5.263,15.575C76.98,551.442,77.215,551.468,77.45,551.455z"/>
<path fill="#666666" d="M188.29,515.034h-13.224c-4.15,0-6.094-1.597-6.162-4.847c-0.068-3.252,1.867-4.914,6.094-4.914h38.423
	c4.15,0,6.23,1.696,6.23,4.847c0,3.147-2.147,4.914-6.162,4.914c-4.244,0.066-8.487,0-13.224,0v42.37
	c0.046,1.039,0.024,2.08-0.068,3.113c-0.26,3.266-3.025,5.758-6.298,5.681c-3.144-0.104-5.607-2.738-5.503-5.882
	c0.005-0.162,0.018-0.323,0.037-0.484c-0.067-13.359-0.067-26.795-0.067-40.155C188.29,518.361,188.29,516.979,188.29,515.034z"/>
<path fill="#666666" d="M94.289,382.517v-32.253c-0.272-3.129,2.043-5.886,5.172-6.159c0.347-0.03,0.695-0.028,1.041,0.005h40.597
	h2.954c2.5,0.114,4.578,1.967,4.974,4.439c0.63,2.595-0.852,5.236-3.395,6.051c-1.017,0.331-2.08,0.502-3.149,0.509
	c-11.667,0.051-23.318,0.068-34.952,0.051c-1.986,0-2.147,0.136-2.147,2.147v50.553c0,2.122,0.051,2.146,2.207,2.146h50.535
	c2.071,0,2.071,0,2.097-2.071c0-10.134,0-20.243,0-30.386c-0.063-1.671,0.581-3.292,1.774-4.464
	c1.586-1.568,3.993-1.956,5.992-0.968c1.942,0.776,3.225,2.646,3.25,4.736c0.136,2.096,0.051,4.244,0.051,6.314v31.464
	c0.089,1.634-0.432,3.242-1.46,4.517c-1.226,1.347-2.995,2.065-4.812,1.961c-14.118,0-28.235,0-42.354,0
	c-7.18,0-14.335-0.053-21.507,0c-2.649,0.238-5.19-1.108-6.476-3.438c-0.313-0.694-0.448-1.456-0.391-2.215
	C94.289,404.458,94.289,393.478,94.289,382.517L94.289,382.517z"/>
<path fill="#666666" d="M134.003,383.026c1.884-2.283,3.633-4.414,5.381-6.561c4.035-5.002,8.049-10.021,12.044-15.057
	c4.651-5.831,9.277-11.67,13.928-17.501c2.343-2.928,4.677-5.865,7.13-8.708c1.833-2.357,5.23-2.781,7.587-0.947
	c0.567,0.441,1.041,0.991,1.393,1.618c1.038,2.292,0.65,4.978-0.993,6.883c-6.29,7.826-12.613,15.651-18.876,23.502
	c-6.858,8.547-13.657,17.103-20.515,25.624c-1.638,2.165-3.424,4.213-5.347,6.128c-2.389,1.647-5.657,1.072-7.342-1.29
	c-1.502-2.631-2.852-5.347-4.244-8.038c-1.935-3.819-3.845-7.647-5.729-11.484c-0.696-1.451-1.4-2.903-1.96-4.414
	c-0.513-2.38,0.576-4.819,2.69-6.026c2.86-1.439,6.345-0.288,7.785,2.572c0.133,0.265,0.247,0.541,0.338,0.823
	c1.935,4.117,4.091,8.123,6.154,12.154C133.544,382.517,133.706,382.653,134.003,383.026L134.003,383.026z"/>
</svg>
