<?xml version="1.0" encoding="utf-8"?>
<!-- Generator: Adobe Illustrator 16.0.0, SVG Export Plug-In . SVG Version: 6.00 Build 0)  -->
<!DOCTYPE svg PUBLIC "-//W3C//DTD SVG 1.1//EN" "http://www.w3.org/Graphics/SVG/1.1/DTD/svg11.dtd">
<svg version="1.1" id="Layer_1" xmlns="http://www.w3.org/2000/svg" xmlns:xlink="http://www.w3.org/1999/xlink" x="0px" y="0px"
	 width="595px" height="842px" viewBox="0 0 595 842" enable-background="new 0 0 595 842" xml:space="preserve">
<path fill="none" d="M0,123.5h595v595H0V123.5z"/>
<g transform="translate(0 3.566)">
	<path fill="#333333" d="M432.692,321.699c0,26.698-0.085,53.397,0,80.181c-0.122,20.006-2.503,39.935-7.099,59.405
		c-7.48,33.536-20.927,65.457-39.693,94.239c-24.8,38.154-58.188,69.97-97.497,92.896c-21.158,12.505-43.804,22.3-67.405,29.154
		c-2.891,0.843-5.954,0.898-8.874,0.161c-51.62-14.854-98.198-43.536-134.7-82.941c-28.847-30.983-50.468-67.978-63.308-108.315
		C7.733,466.426,3.37,445.785,1.095,424.863c-0.676-6.27-1.014-12.57-1.012-18.878c0-57.979,0.17-115.881-0.085-173.791
		c0-7.896,4.479-11.135,12.002-11.399c11.492-0.314,23.078-0.629,34.569-1.581c40.149-2.92,79.328-13.729,115.294-31.807
		c17.407-8.545,33.332-19.826,47.167-33.414c3.327-4.096,9.344-4.719,13.439-1.392c0.564,0.458,1.074,0.979,1.521,1.554
		c12.812,12.455,27.397,22.944,43.282,31.127c22.924,12.272,47.448,21.287,72.862,26.783c25.462,5.772,51.488,8.686,77.598,8.687
		c2.272-0.029,4.545,0.102,6.8,0.391c4.656,0.105,8.345,3.965,8.238,8.621c-0.004,0.207-0.017,0.413-0.035,0.619
		C432.707,260.875,432.692,291.314,432.692,321.699L432.692,321.699z M216.053,172.71c-4.735,3.715-9.469,7.506-14.289,11.05
		c-21.43,15.254-44.982,27.283-69.904,35.7c-21.473,7.596-43.729,12.768-66.351,15.419c-13.948,1.581-27.982,2.686-41.922,3.553
		c-4.25,0.238-4.989,1.7-4.989,5.21c0.085,43.053-0.17,86.105,0.17,129.081c0.17,20.068,0.68,40.29,2.55,60.273
		c2.107,19.759,6.738,39.166,13.779,57.748c9.445,26.224,22.905,50.82,39.899,72.913c14.337,18.503,30.982,35.098,49.529,49.376
		c25.944,20.31,55.304,35.824,86.7,45.815c3.437,1.121,7.145,1.094,10.565-0.076c55.225-17.786,103.612-52.188,138.55-98.507
		c23.256-31.117,39.413-66.952,47.336-104.983c4.048-19.44,6.172-39.233,6.341-59.092c0.17-18.955,0-37.919,0-56.874
		c0-32.152,0.028-64.277,0.085-96.373c0-3.077-0.85-4.42-4.395-4.505c-6.852-0.161-13.778-0.791-20.62-1.267
		c-23.193-1.572-46.164-5.517-68.553-11.772c-28.174-7.454-55.011-19.261-79.543-34.994
		C232.535,184.874,224.502,178.72,216.053,172.71z"/>
	<path fill="#666666" d="M56.465,345.481v-62.407c0-9.478,1.777-11.611,11.747-12.877c23.16-2.886,46.016-7.83,68.297-14.773
		c24.438-7.392,47.799-17.966,69.479-31.45c6.14-4.776,14.737-4.776,20.876,0c25.891,16.258,54.233,28.235,83.938,35.471
		c18.258,4.505,36.94,7.505,55.445,10.905c7.353,1.343,9.971,3.791,9.971,10.82c0,41.472,0.17,82.943-0.255,124.416
		c-0.583,27.954-6.404,55.553-17.162,81.36c-12.545,31.513-31.715,59.96-56.21,83.419c-23.24,22.253-50.723,39.599-80.81,51
		c-3.496,1.425-7.41,1.425-10.906,0c-31.238-11.878-59.653-30.146-83.427-53.635c-25.598-25.289-45.104-56.07-57.044-90.015
		c-7.296-19.215-11.597-39.438-12.75-59.959c-0.85-24.099-1.181-48.11-1.7-72.199C56.117,345.494,56.292,345.468,56.465,345.481z
		 M75.318,353.302h0.765c0,18.64-0.425,37.4,0.085,56.006c0.857,26.688,6.884,52.957,17.748,77.35
		c14.222,33.077,36.547,62.037,64.915,84.21c16.352,13.197,34.584,23.875,54.094,31.681c2.309,0.765,4.806,0.736,7.098-0.077
		c53.178-21.775,95.82-63.354,118.932-115.965c12.043-27.782,18.312-57.723,18.429-88.001c0.425-35.946,0.085-71.884,0.17-107.746
		c0-2.686-0.927-3.553-3.724-3.953c-20.896-3.034-41.524-7.684-61.701-13.906c-25.379-7.764-49.751-18.503-72.607-31.994
		c-1.823-1.321-4.297-1.29-6.086,0.077c-4.139,2.55-8.449,4.743-12.682,7.029c-37.791,19.695-78.669,32.786-120.87,38.709
		c-3.638,0.553-4.564,1.7-4.564,4.981c0.077,20.519-0.009,41.055-0.009,61.617L75.318,353.302z"/>
	<path fill="#333333" d="M197.37,471.392c5.746-6.163,11.407-12.163,17-18.173c35.586-37.995,71.173-75.962,106.76-113.9
		c3.311-4.524,9.659-5.509,14.185-2.199c0.062,0.047,0.127,0.094,0.189,0.143c3.898,3.069,4.571,8.718,1.503,12.617
		c-0.396,0.501-0.842,0.959-1.333,1.366L211.166,484.193l-5.576,5.95c-3.396,4.395-9.71,5.204-14.105,1.809
		c-0.46-0.354-0.888-0.75-1.28-1.18c-14.034-12.954-27.897-25.993-41.837-39.022l-31.356-29.309
		c-4.565-4.25-5.576-7.506-3.553-11.534c2.557-4.894,8.596-6.788,13.489-4.23c0.994,0.52,1.894,1.203,2.661,2.021
		c15.555,14.456,31.107,28.966,46.657,43.529c6.256,5.848,12.512,11.771,18.768,17.611
		C195.56,470.288,196.358,470.687,197.37,471.392L197.37,471.392z"/>
</g>
</svg>
