<?xml version="1.0" encoding="utf-8"?>
<!-- Generator: Adobe Illustrator 16.0.0, SVG Export Plug-In . SVG Version: 6.00 Build 0)  -->
<!DOCTYPE svg PUBLIC "-//W3C//DTD SVG 1.1//EN" "http://www.w3.org/Graphics/SVG/1.1/DTD/svg11.dtd">
<svg version="1.1" id="Layer_1" xmlns="http://www.w3.org/2000/svg" xmlns:xlink="http://www.w3.org/1999/xlink" x="0px" y="0px"
	 width="595px" height="842px" viewBox="0 0 595 842" enable-background="new 0 0 595 842" xml:space="preserve">
<path fill="none" d="M0,123.5h595v595H0V123.5z"/>
<g transform="translate(.692 8.001)">
	<path fill="#333333" stroke="#7B47B4" stroke-width="0.5" d="M243.904,183.507c90.652,3.63,160.497,42.747,206.261,122.12
		c23.966,41.755,33.898,90.099,28.339,137.921c-6.355,68.087-42.123,130.004-97.93,169.524c-4.888,3.638-7.275,2.261-10.284-2.263
		c-2.883-4.25-4.013-7.274,1.003-10.785c34.824-24.571,61.71-58.783,77.351-98.431c12.146-30.303,17.174-62.987,14.696-95.54
		c-5.085-80.875-54.093-152.455-127.653-186.448c-39.242-18.812-83.317-25.114-126.259-18.054
		c-60.663,9.043-114.729,43.171-148.988,94.044c-14.846,21.154-25.645,44.875-31.85,69.963c-6.835,25.705-8.568,52.5-5.1,78.871
		c2.431,18.584,6.927,36.839,13.404,54.427c14.187,37.445,38.547,70.188,70.337,94.536c10.238,7.502,20.87,14.45,31.85,20.816
		c6.52,4.012,7.896,3.638,10.787-3.137c7.021-16.423,13.668-33.1,20.562-49.529c7.65-18.7,15.382-37.298,23.196-55.794
		c0.374-0.851,1.504-2.261,1.878-2.134c3.626,0.638,7.134,1.82,10.404,3.511c1.258,0.757,1.632,4.641,0.85,6.52
		c-5.771,14.672-11.9,29.216-17.927,43.887c-9.282,22.438-18.811,44.889-27.837,67.456c-4.769,12.035-8.398,14.042-20.06,8.277
		c-43.602-21.195-79.621-55.301-103.165-97.682c-12.121-21.152-20.678-44.154-25.33-68.085c-5.452-27.479-6.087-55.696-1.878-83.394
		c6.732-44.545,26.247-86.179,56.177-119.85c22.65-26.078,50.895-46.708,82.628-60.35
		C179.063,190.441,211.297,183.485,243.904,183.507L243.904,183.507z"/>
	<path fill="#333333" stroke="#009BFF" stroke-width="0.5" d="M330.425,632.631c-7.649-18.31-15.172-35.989-22.439-53.916
		c-9.275-22.445-18.513-44.931-27.71-67.456c-3.009-7.274-1.879-10.404,5.1-14.17c13.28-7.186,24.438-17.738,32.352-30.6
		c25.167-41.144,12.217-94.898-28.926-120.066c-41.143-25.168-94.899-12.217-120.066,28.926c-1.147,1.875-2.223,3.793-3.226,5.75
		c-16.422,31.85-12.291,62.814,8.024,91.91c2.952,3.74,2.313,9.165-1.427,12.117c-1.254,0.99-2.758,1.612-4.344,1.797
		c-1.755-0.06-3.379-0.939-4.386-2.379c-6.789-11.118-12.902-22.634-18.309-34.485c-4.197-12.064-5.612-24.923-4.139-37.611
		c1.237-28.354,14.965-54.708,37.494-71.969c44.264-35.74,109.12-28.83,144.859,15.434c6.482,8.029,11.723,16.987,15.543,26.573
		c18.121,44.636,2.476,95.863-37.494,122.757c-3.27,1.528-4.68,5.421-3.148,8.689c0.114,0.244,0.243,0.481,0.389,0.71
		c13.913,33.855,27.836,67.584,41.751,101.439c0.542,1.354,1.214,2.656,2.007,3.885c1.891,2.688,1.244,6.398-1.441,8.29
		c-0.555,0.39-1.171,0.683-1.822,0.864C336.189,630.123,333.681,631.253,330.425,632.631L330.425,632.631z"/>
	<path fill="#666666" stroke="#7B47B4" stroke-width="0.5" d="M183.342,245.438c8.78-0.629,8.899-0.255,9.401,5.27
		c0.374,4.386-1.13,5.517-4.888,5.891c-42.5,3.638-75.106,25.458-96.9,66.827c-9.778,18.425-14.94,38.947-15.045,59.806
		c0,6.392-3.885,4.012-6.8,4.514c-3.638,0.628-4.641-1.632-4.139-5.015c1.878-12.164,3.264-24.446,6.018-36.49
		c4.956-20.701,14.792-39.916,28.688-56.041c13.553-16.622,31.179-29.451,51.161-37.239
		C161.247,248.88,172.198,246.346,183.342,245.438L183.342,245.438z"/>
</g>
</svg>
