<?xml version="1.0" standalone="no"?>
<!DOCTYPE svg PUBLIC "-//W3C//DTD SVG 20010904//EN"
 "http://www.w3.org/TR/2001/REC-SVG-20010904/DTD/svg10.dtd">
<svg version="1.0" xmlns="http://www.w3.org/2000/svg"
 width="407.000000pt" height="154.000000pt" viewBox="0 0 407.000000 154.000000"
 preserveAspectRatio="xMidYMid meet">
<metadata>
Created by potrace 1.15, written by Peter Selinger 2001-2017
</metadata>
<g transform="translate(0.000000,154.000000) scale(0.100000,-0.100000)"
fill="#000000" stroke="none">
<path d="M427 1118 c-96 -139 -207 -300 -246 -357 l-71 -104 21 -36 c12 -20
71 -122 131 -228 61 -106 118 -194 127 -197 9 -2 68 -15 131 -27 128 -25 100
-28 312 30 126 34 116 25 197 184 46 92 70 150 65 159 -4 7 -62 90 -128 183
-101 143 -137 206 -232 401 -62 128 -117 235 -122 238 -6 3 -89 -108 -185
-246z m105 -27 l-37 -164 -138 -94 c-76 -53 -140 -93 -143 -91 -2 3 66 105
152 229 85 123 165 239 176 257 11 18 22 32 23 30 2 -2 -13 -77 -33 -167z
m202 -209 l49 -7 -144 -127 c-79 -70 -146 -123 -147 -118 -4 11 27 250 33 261
5 7 131 1 209 -9z m-328 -133 c-43 -61 -75 -113 -73 -115 2 -2 34 42 72 97 38
56 71 96 73 90 2 -7 -3 -20 -12 -30 -18 -20 -21 -36 -6 -26 15 9 12 -8 -5 -31
-17 -22 -20 -38 -5 -29 17 11 11 -9 -15 -47 -32 -48 -32 -61 1 -23 l25 30 -16
-32 c-17 -35 -22 -38 -44 -24 -12 8 -10 16 13 46 16 20 26 38 24 41 -2 2 -19
-18 -38 -44 -18 -26 -35 -42 -37 -35 -2 7 -10 10 -16 8 -7 -3 -18 -1 -25 4
-10 6 1 29 48 96 33 48 59 89 57 91 -2 2 -32 -36 -66 -86 -56 -80 -81 -111
-81 -96 0 5 74 115 118 175 16 21 27 29 32 21 4 -7 13 -2 24 15 10 15 20 24
23 21 3 -2 -29 -55 -71 -117z m368 40 c-14 -15 -15 -22 -6 -28 9 -5 -15 -47
-79 -142 -116 -169 -140 -201 -146 -195 -2 2 46 77 107 166 61 89 110 164 107
166 -2 2 -29 -33 -60 -79 -112 -165 -159 -229 -164 -223 -3 3 40 71 96 152 56
80 100 148 98 150 -2 2 -46 -57 -97 -131 -51 -75 -96 -138 -101 -140 -4 -3
-11 5 -15 17 -4 13 -11 26 -16 29 -11 7 58 109 73 109 5 0 -7 -23 -27 -50 -20
-28 -34 -53 -32 -55 2 -3 30 33 61 79 62 90 92 124 82 90 -4 -14 -1 -12 12 6
32 44 73 86 67 68 -10 -30 3 -20 27 19 13 20 25 31 27 24 2 -7 -4 -21 -14 -32z
m102 -258 c25 -145 42 -266 38 -270 -12 -10 -244 -75 -249 -69 -2 2 31 139 75
303 44 164 80 301 80 304 0 2 2 2 5 0 2 -3 25 -123 51 -268z m-557 59 c66 -18
121 -36 121 -41 0 -12 -61 -273 -65 -277 -2 -2 -22 29 -46 70 -23 40 -68 118
-100 174 -62 106 -67 119 -45 111 7 -3 68 -20 135 -37z"/>
<path d="M3820 975 c0 -78 3 -95 15 -95 11 0 15 13 16 53 1 53 8 46 23 -26 9
-40 28 -29 42 24 l12 44 1 -47 c1 -41 4 -48 21 -48 19 0 20 7 20 95 0 93 0 95
-24 95 -21 0 -25 -7 -36 -62 -15 -66 -19 -64 -40 20 -8 31 -16 42 -30 42 -18
0 -20 -7 -20 -95z"/>
<path d="M1420 1028 c-47 -25 -51 -47 -48 -270 3 -201 4 -208 26 -230 20 -20
32 -23 107 -23 75 0 87 3 107 23 23 22 23 27 23 242 0 214 -1 220 -23 242 -18
19 -35 23 -95 26 -46 2 -81 -2 -97 -10z m130 -258 l0 -180 -45 0 -45 0 0 180
0 180 45 0 45 0 0 -180z"/>
<path d="M1705 1028 c-3 -7 -4 -128 -3 -268 l3 -255 103 -3 c102 -3 103 -3
132 27 29 28 30 33 30 120 0 78 -3 92 -19 103 -20 14 -20 14 0 26 17 11 19 24
19 107 0 85 -2 97 -24 122 -23 27 -28 28 -130 31 -82 3 -107 1 -111 -10z"/>
<path d="M2083 1029 c-34 -18 -44 -57 -41 -164 l3 -100 85 -30 c82 -29 85 -31
88 -64 2 -19 1 -45 -3 -58 -5 -21 -11 -24 -43 -21 -35 3 -37 5 -42 43 -5 39
-6 40 -47 43 l-43 3 0 -55 c0 -105 32 -131 151 -124 103 6 110 17 107 161 l-3
110 -80 27 -80 27 0 59 0 59 34 3 c39 4 51 -9 51 -55 0 -32 2 -33 40 -33 l40
0 0 64 c0 95 -16 110 -117 113 -43 2 -88 -2 -100 -8z"/>
<path d="M2420 1028 c-47 -25 -51 -47 -48 -270 3 -201 4 -208 26 -230 20 -20
32 -23 107 -23 110 0 127 14 133 110 l4 65 -45 0 -46 0 -3 -42 c-3 -43 -3 -43
-43 -43 l-40 0 0 175 0 175 40 0 c40 0 40 0 43 -42 l3 -43 46 0 45 0 -4 65
c-6 91 -24 109 -121 113 -46 2 -81 -2 -97 -10z"/>
<path d="M2710 797 c0 -296 -3 -289 109 -295 82 -5 123 8 140 44 7 16 11 106
11 259 l0 235 -40 0 -40 0 0 -209 c0 -115 -3 -216 -6 -225 -4 -11 -19 -16 -45
-16 l-39 0 -2 223 -3 222 -42 3 -43 3 0 -244z"/>
<path d="M3040 770 l0 -270 45 0 45 0 0 90 c0 88 0 90 24 90 22 0 26 -8 46
-90 l22 -90 44 0 c24 0 44 2 44 4 0 3 -11 45 -24 95 -19 72 -22 92 -12 98 28
17 36 54 36 162 0 169 -11 181 -170 181 l-100 0 0 -270z m180 90 l0 -90 -45 0
-45 0 0 90 0 90 45 0 45 0 0 -90z"/>
<path d="M3380 770 l0 -270 130 0 130 0 0 45 0 45 -85 0 -85 0 0 65 0 65 65 0
65 0 0 45 0 45 -65 0 -65 0 0 70 0 70 85 0 85 0 0 45 0 45 -130 0 -130 0 0
-270z"/>
</g>
</svg>
